<?xml version="1.0" standalone="no"?>
<!DOCTYPE svg PUBLIC "-//W3C//DTD SVG 20010904//EN"
 "http://www.w3.org/TR/2001/REC-SVG-20010904/DTD/svg10.dtd">
<svg version="1.0" xmlns="http://www.w3.org/2000/svg"
 viewBox="0 0 2600.000000 2600.000000"
 preserveAspectRatio="xMidYMid meet">
<metadata>
Created by potrace 1.15, written by Peter Selinger 2001-2017
</metadata>
<g transform="translate(0.000000,2600.000000) scale(0.100000,-0.100000)"
fill="#000000" stroke="none">
<path d="M21330 18823 c-255 -27 -548 -113 -865 -254 -253 -112 -3246 -1622
-3233 -1631 7 -4 41 -8 74 -8 82 0 289 -36 389 -67 245 -76 439 -225 530 -407
63 -124 79 -194 79 -346 1 -79 -5 -158 -12 -190 -60 -247 -182 -478 -385 -730
-95 -117 -345 -367 -479 -479 -49 -39 -88 -73 -88 -75 0 -2 15 -37 34 -77 218
-480 392 -1057 457 -1516 6 -46 13 -83 15 -83 2 0 682 341 1511 759 829 417
1769 889 2088 1049 656 329 763 387 960 517 177 118 284 203 410 330 310 310
455 643 455 1045 -1 331 -94 664 -296 1060 -383 750 -876 1116 -1489 1108 -66
-1 -136 -3 -155 -5z"/>
<path d="M16940 16533 c-241 -20 -611 -105 -910 -209 -317 -109 -708 -291
-960 -445 -74 -45 -171 -103 -216 -129 -199 -117 -568 -426 -757 -635 -197
-218 -351 -468 -391 -636 -75 -310 87 -493 491 -554 112 -17 353 -19 493 -5
333 35 716 135 1118 292 84 33 155 58 157 56 10 -9 178 -378 229 -500 201
-486 345 -999 397 -1425 7 -57 17 -103 21 -103 4 0 199 96 433 213 l426 212
-6 70 c-50 582 -233 1203 -542 1848 -47 98 -84 179 -82 181 2 1 60 45 129 96
681 509 1058 1092 906 1403 -67 139 -252 234 -516 266 -79 10 -318 12 -420 4z"/>
<path d="M9245 12939 c-2376 -1194 -4323 -2174 -4328 -2178 -7 -7 814 -3826
831 -3862 6 -14 858 411 5234 2610 l5227 2626 1 35 c0 55 -38 300 -72 460 -67
321 -206 745 -356 1092 l-20 46 -69 -25 c-246 -89 -597 -172 -913 -215 -127
-17 -530 -17 -635 0 -444 73 -721 268 -822 577 -32 98 -42 266 -23 383 26 161
101 347 214 526 31 49 55 90 53 92 -1 2 -1947 -974 -4322 -2167z"/>
<path d="M4425 10518 c-132 -66 -241 -121 -243 -123 -4 -4 834 -3864 840
-3871 3 -3 115 49 247 116 197 98 241 124 237 138 -3 9 -192 881 -421 1936
-228 1056 -416 1921 -418 1922 -1 1 -110 -52 -242 -118z"/>
<path d="M3688 10146 c-180 -91 -237 -125 -232 -136 3 -8 301 -824 661 -1812
361 -989 658 -1797 659 -1795 1 1 -187 870 -417 1932 -230 1062 -418 1931
-419 1933 -1 6 -31 -9 -252 -122z"/>
<path d="M2998 9799 c-131 -65 -238 -122 -238 -127 0 -7 1231 -3664 1235
-3670 5 -6 485 238 485 246 1 15 -1233 3672 -1239 3671 -3 0 -113 -54 -243
-120z"/>
</g>
</svg>
